<svg xmlns="http://www.w3.org/2000/svg" xmlns:xlink="http://www.w3.org/1999/xlink" version="1.1" x="0px" y="0px" viewBox="0 0 100 100" enable-background="new 0 0 100 100" xml:space="preserve"><g><path d="M52.399,30.593c-0.069-0.069-0.138-0.132-0.206-0.189c-0.037-0.031-0.077-0.06-0.115-0.09   c-0.02-0.015-0.037-0.028-0.057-0.043c-0.565-0.42-1.263-0.67-2.021-0.671c-0.757,0.001-1.454,0.251-2.019,0.67   c-0.026,0.018-0.052,0.037-0.077,0.057c-0.03,0.025-0.062,0.048-0.093,0.075c-0.072,0.059-0.144,0.122-0.216,0.194L32.492,45.7   c-1.327,1.327-1.327,3.479,0,4.808c1.328,1.328,3.48,1.328,4.808,0l9.3-9.299L46.601,67c0,1.879,1.522,3.4,3.399,3.4   s3.399-1.521,3.399-3.4V41.209l9.299,9.299c1.329,1.328,3.481,1.328,4.81,0s1.328-3.48,0-4.808L52.406,30.598   C52.404,30.597,52.402,30.594,52.399,30.593z"></path><path d="M50,84c18.777,0,34-15.223,34-34S68.777,16,50,16S16,31.223,16,50S31.223,84,50,84z M50,22.8   c15.021,0,27.2,12.179,27.2,27.2S65.021,77.2,50,77.2S22.8,65.021,22.8,50S34.979,22.8,50,22.8z"></path></g></svg>