<svg xmlns="http://www.w3.org/2000/svg" xmlns:xlink="http://www.w3.org/1999/xlink" viewBox="0 0 100 100" version="1.1" x="0px" y="0px"><title>Cancel 3r</title><desc>Created with Sketch.</desc><g stroke="none" stroke-width="1" fill="none" fill-rule="evenodd"><g fill="#000000"><path d="M54.2426407,50 L67.6801215,36.5625192 C68.85332,35.3893207 68.8492424,33.4939033 67.6776695,32.3223305 C66.5084806,31.1531415 64.6076995,31.1496598 63.4374808,32.3198785 L50,45.7573593 L36.5625192,32.3198785 C35.3893207,31.14668 33.4939033,31.1507576 32.3223305,32.3223305 C31.1531415,33.4915194 31.1496598,35.3923005 32.3198785,36.5625192 L45.7573593,50 L32.3198785,63.4374808 C31.14668,64.6106793 31.1507576,66.5060967 32.3223305,67.6776695 C33.4915194,68.8468585 35.3923005,68.8503402 36.5625192,67.6801215 L50,54.2426407 L63.4374808,67.6801215 C64.6106793,68.85332 66.5060967,68.8492424 67.6776695,67.6776695 C68.8468585,66.5084806 68.8503402,64.6076995 67.6801215,63.4374808 L54.2426407,50 Z"></path><path d="M19.5944084,80.4055916 C36.386953,97.1981361 63.613047,97.1981361 80.4055916,80.4055916 C97.1981361,63.613047 97.1981361,36.386953 80.4055916,19.5944084 C63.613047,2.80186386 36.386953,2.80186386 19.5944084,19.5944084 C2.80186386,36.386953 2.80186386,63.613047 19.5944084,80.4055916 L19.5944084,80.4055916 Z M23.8370491,76.1629509 C9.3876503,61.7135521 9.3876503,38.2864479 23.8370491,23.8370491 C38.2864479,9.3876503 61.7135521,9.3876503 76.1629509,23.8370491 C90.6123497,38.2864479 90.6123497,61.7135521 76.1629509,76.1629509 C61.7135521,90.6123497 38.2864479,90.6123497 23.8370491,76.1629509 L23.8370491,76.1629509 Z"></path></g></g></svg>