<svg xmlns="http://www.w3.org/2000/svg" xmlns:xlink="http://www.w3.org/1999/xlink" version="1.1" x="0px" y="0px" viewBox="0 0 100 125" enable-background="new 0 0 100 100" xml:space="preserve"><g><path d="M69.407,52.399c0.069-0.069,0.132-0.138,0.189-0.206c0.031-0.037,0.06-0.076,0.09-0.115   c0.015-0.02,0.028-0.037,0.043-0.057c0.42-0.564,0.67-1.262,0.671-2.021c-0.001-0.758-0.251-1.455-0.67-2.02   c-0.018-0.025-0.037-0.052-0.057-0.076c-0.025-0.03-0.048-0.062-0.075-0.093c-0.059-0.072-0.122-0.144-0.194-0.216L54.3,32.493   c-1.327-1.327-3.479-1.327-4.808,0s-1.329,3.479,0,4.808l9.299,9.3L33,46.602c-1.879-0.001-3.4,1.522-3.4,3.399   s1.521,3.398,3.4,3.399l25.791-0.001l-9.299,9.299c-1.328,1.329-1.328,3.482,0,4.811c1.328,1.327,3.48,1.327,4.808,0l15.103-15.102   C69.403,52.404,69.406,52.403,69.407,52.399z"/><path d="M16,50.001C16,68.777,31.223,84,50,84s33.999-15.223,34-34c0-18.777-15.223-34-34-34C31.223,16.001,16,31.223,16,50.001z    M77.2,50.001c0,15.021-12.179,27.199-27.2,27.2c-15.021,0-27.2-12.18-27.2-27.2c0-15.022,12.179-27.2,27.2-27.2   C65.021,22.8,77.2,34.979,77.2,50.001z"/></g><text x="0" y="115" fill="#000000" font-size="5px" font-weight="bold" font-family="'Helvetica Neue', Helvetica, Arial-Unicode, Arial, Sans-serif">Created by Jamison Wieser</text><text x="0" y="120" fill="#000000" font-size="5px" font-weight="bold" font-family="'Helvetica Neue', Helvetica, Arial-Unicode, Arial, Sans-serif">from the Noun Project</text></svg>