<svg xmlns="http://www.w3.org/2000/svg" xmlns:xlink="http://www.w3.org/1999/xlink" version="1.1" id="Your_Icon" x="0px" y="0px" width="100px" height="100px" viewBox="0 0 100 100" enable-background="new 0 0 100 100" xml:space="preserve">
<path d="M46,96c2.56,0,5.118-0.977,7.071-2.929c3.905-3.905,3.904-10.237-0.001-14.143L24.143,50l28.929-28.929  c3.904-3.905,3.904-10.237,0-14.143c-3.905-3.905-10.237-3.905-14.143,0l-36,36C1.054,44.805,0,47.348,0,50  c0,2.653,1.054,5.197,2.929,7.072L38.93,93.071C40.881,95.023,43.441,96,46,96z"/>
<path d="M19.903,60.001h70.192c5.47,0,9.904-4.477,9.904-10c0-5.522-4.435-10-9.904-10H19.903C14.435,40,10,44.478,10,50  C10,55.524,14.435,60.001,19.903,60.001z"/>
</svg>