<svg xmlns="http://www.w3.org/2000/svg" xmlns:xlink="http://www.w3.org/1999/xlink" version="1.1" id="Your_Icon" x="0px" y="0px" width="100px" height="100px" viewBox="0 0 100 100" enable-background="new 0 0 100 100" xml:space="preserve">
<g>
	<path d="M60.217,37.435c7.416,0,13.449,6.033,13.449,13.449s-6.033,13.449-13.449,13.449H40.144   c-7.416,0-13.449-6.033-13.449-13.449s6.033-13.449,13.449-13.449H60.217 M60.217,35.435H40.144   c-8.532,0-15.449,6.917-15.449,15.449s6.917,15.449,15.449,15.449h20.073c8.532,0,15.449-6.917,15.449-15.449   S68.75,35.435,60.217,35.435L60.217,35.435z"/>
</g>
<g>
	<path d="M40.195,65.384c-7.995,0-14.5-6.505-14.5-14.5s6.505-14.5,14.5-14.5c7.996,0,14.5,6.504,14.5,14.5   S48.19,65.384,40.195,65.384z M40.195,37.384c-7.444,0-13.5,6.056-13.5,13.5c0,7.444,6.056,13.5,13.5,13.5   c7.444,0,13.5-6.056,13.5-13.5C53.695,43.44,47.639,37.384,40.195,37.384z"/>
</g>
</svg>