<svg xmlns="http://www.w3.org/2000/svg" xmlns:xlink="http://www.w3.org/1999/xlink" version="1.1" x="0px" y="0px" viewBox="0 0 100 125" enable-background="new 0 0 100 100" xml:space="preserve"><g><path d="M30.592,47.601c-0.068,0.069-0.131,0.138-0.189,0.206c-0.031,0.037-0.059,0.077-0.09,0.115   c-0.014,0.02-0.027,0.037-0.043,0.057C29.85,48.544,29.6,49.241,29.6,50c0,0.758,0.25,1.454,0.67,2.019   c0.018,0.026,0.037,0.052,0.057,0.077c0.025,0.03,0.047,0.062,0.074,0.093c0.059,0.072,0.123,0.144,0.195,0.216l15.104,15.104   c1.328,1.327,3.48,1.327,4.809,0c1.328-1.328,1.328-3.48,0-4.808l-9.299-9.3L67,53.399c1.879,0,3.4-1.522,3.4-3.399   s-1.521-3.399-3.4-3.399H41.209l9.299-9.3c1.328-1.328,1.328-3.48,0-4.809s-3.48-1.328-4.809,0L30.598,47.594   C30.596,47.596,30.594,47.598,30.592,47.601z"/><path d="M84,50c0-18.777-15.223-34-34-34S16,31.223,16,50s15.223,34,34,34S84,68.777,84,50z M22.799,50   c0-15.021,12.18-27.2,27.201-27.2S77.199,34.979,77.199,50S65.021,77.2,50,77.2S22.799,65.021,22.799,50z"/></g><text x="0" y="115" fill="#000000" font-size="5px" font-weight="bold" font-family="'Helvetica Neue', Helvetica, Arial-Unicode, Arial, Sans-serif">Created by Jamison Wieser</text><text x="0" y="120" fill="#000000" font-size="5px" font-weight="bold" font-family="'Helvetica Neue', Helvetica, Arial-Unicode, Arial, Sans-serif">from the Noun Project</text></svg>