<svg xmlns="http://www.w3.org/2000/svg" xmlns:xlink="http://www.w3.org/1999/xlink" version="1.1" id="Your_Icon" x="0px" y="0px" width="99.08px" height="100.002px" viewBox="0 0 99.08 100.002" enable-background="new 0 0 99.08 100.002" xml:space="preserve">
<g>
	<path d="M49.539,100.002c27.344,0.014,49.518-22.378,49.541-49.979C99.057,22.381,76.883-0.01,49.539,0   C22.188-0.01,0.018,22.381,0,50.023C0.018,77.624,22.188,100.016,49.539,100.002z M49.539,11.52c21.043,0,38.1,17.23,38.076,38.506   c0.023,21.232-17.033,38.462-38.076,38.453c-21.048,0.01-38.107-17.224-38.131-38.456C11.432,28.75,28.491,11.52,49.539,11.52z"/>
	<path d="M57.516,70.865c-0.484,0-0.881-0.566-0.881-1.263V40.036H38.169v3.795h3.342c0.484,0,0.873,0.396,0.873,0.881v25.273   c0,0.485-0.393,0.881-0.873,0.881h-3.342v3.922h22.948v-3.922H57.516L57.516,70.865z"/>
	<path d="M49.512,21.634c4.372,0,7.922,3.546,7.922,7.922s-3.55,7.923-7.922,7.923c-4.38,0-7.927-3.547-7.927-7.923   S45.132,21.634,49.512,21.634z"/>
</g>
</svg>