<svg xmlns="http://www.w3.org/2000/svg" xmlns:xlink="http://www.w3.org/1999/xlink" version="1.1" id="Your_Icon" x="0px" y="0px" width="100px" height="100px" viewBox="0 0 100 100" enable-background="new 0 0 100 100" xml:space="preserve">
<path d="M54,96c-2.56,0-5.118-0.977-7.071-2.929c-3.905-3.905-3.905-10.237,0-14.143L75.857,50L46.929,21.072  c-3.905-3.905-3.905-10.237,0-14.143c3.905-3.905,10.237-3.905,14.143,0l36,36C98.946,44.805,100,47.348,100,50  c0,2.653-1.054,5.197-2.929,7.072L61.07,93.071C59.119,95.023,56.559,96,54,96z"/>
<path d="M80.097,60.001H9.904C4.434,60.001,0,55.524,0,50c0-5.522,4.434-10,9.904-10h70.193C85.565,40,90,44.478,90,50  C90,55.524,85.565,60.001,80.097,60.001z"/>
</svg>